<svg width="22" height="21" viewBox="0 0 22 21" fill="none" xmlns="http://www.w3.org/2000/svg">
<rect x="0.363647" width="21.6364" height="21" rx="10.5" fill="#49B02B"/>
<path fill-rule="evenodd" clip-rule="evenodd" d="M14.0719 7.76383C14.2874 8.02601 14.2496 8.41325 13.9874 8.62877L7.81616 13.7017C7.55399 13.9173 7.16674 13.8794 6.95122 13.6173C6.73571 13.3551 6.77353 12.9678 7.03571 12.7523L13.2069 7.67935C13.4691 7.46383 13.8564 7.50166 14.0719 7.76383Z" fill="white"/>
<path fill-rule="evenodd" clip-rule="evenodd" d="M14.1316 7.15223C14.4694 7.18523 14.7165 7.4858 14.6835 7.82358L14.3456 11.2833C14.3126 11.6211 14.012 11.8682 13.6742 11.8352C13.3365 11.8022 13.0894 11.5016 13.1224 11.1639L13.4006 8.3157L10.5524 8.03752C10.2146 8.00453 9.96754 7.70396 10.0005 7.36618C10.0335 7.0284 10.3341 6.78132 10.6719 6.81431L14.1316 7.15223Z" fill="white"/>
</svg>
