<svg width="42" height="42" viewBox="0 0 42 42" fill="none" xmlns="http://www.w3.org/2000/svg">
<g clip-path="url(#clip0_21_712)">
<path d="M32.5905 13.4464C32.3108 13.1746 31.9183 13.0511 31.5342 13.1142C31.1494 13.1771 30.8171 13.4187 30.6386 13.7654C30.0247 14.958 29.2449 16.0541 28.3274 17.0229C28.4189 16.323 28.4649 15.619 28.4649 14.913C28.4649 13.5584 28.2834 12.1645 27.9252 10.7694C26.7474 6.18701 23.6589 2.31177 19.4519 0.137371C19.0856 -0.0518752 18.6492 -0.0452307 18.2889 0.15509C17.9285 0.355492 17.6925 0.72291 17.6602 1.13389C17.3322 5.29812 15.1873 9.08665 11.7721 11.5305C11.7269 11.5631 11.682 11.5961 11.6371 11.6289C11.5442 11.6969 11.4566 11.7612 11.3747 11.8152C11.3619 11.8237 11.3492 11.8324 11.3367 11.8413C9.18881 13.3792 7.41653 15.4291 6.21124 17.7702C4.98652 20.1515 4.36554 22.7069 4.36554 25.3651C4.36554 26.7193 4.54707 28.1132 4.90514 29.5086C6.79473 36.8633 13.4133 41.9999 21.0004 41.9999C30.1724 41.9999 37.6343 34.5375 37.6343 25.3651C37.6343 20.8419 35.8431 16.6091 32.5905 13.4464Z" fill="#333333"/>
<circle cx="19.7647" cy="24.7059" r="4.94118" fill="white"/>
</g>
<defs>
<clipPath id="clip0_21_712">
<rect width="42" height="42" fill="white"/>
</clipPath>
</defs>
</svg>
