<svg width="61" height="61" viewBox="0 0 61 61" fill="none" xmlns="http://www.w3.org/2000/svg">
<rect width="61" height="61" rx="16" fill="#333333"/>
<rect x="0.544643" y="0.544643" width="59.9107" height="59.9107" rx="15.4554" stroke="url(#paint0_linear_21_1344)" stroke-opacity="0.25" stroke-width="1.08929"/>
<path d="M28.8516 16.0383C27.8945 16.1914 27.0633 16.4758 26.4234 16.8586C25.4336 17.4492 24.5312 18.3461 23.9406 19.3195C23.6344 19.8226 23.3609 20.5226 23.2078 21.1679C23.0492 21.8515 23.0109 23.2187 23.1312 23.9078C23.4812 25.9203 24.6898 27.6265 26.5109 28.6711C28.3047 29.6992 30.6945 29.7867 32.6578 28.9008C33.3141 28.6054 33.932 28.1515 34.5719 27.5172C36.0047 26.0843 36.6336 24.4547 36.5461 22.4422C36.4641 20.6539 35.857 19.2484 34.6102 17.9851C33.6148 16.9734 32.3734 16.3226 31.0008 16.082C30.5687 16.0054 29.2125 15.9781 28.8516 16.0383ZM31.1922 17.8539C32.0125 18.0945 32.7562 18.5484 33.407 19.2101C34.0578 19.8718 34.4187 20.4789 34.6867 21.3429C34.8234 21.7859 34.8344 21.8953 34.8344 22.7539C34.8289 23.6015 34.818 23.7273 34.6867 24.1648C34.4352 24.9906 34.0687 25.6031 33.4234 26.2703C32.4609 27.2711 31.1812 27.8125 29.8141 27.8125C28.4578 27.807 27.3422 27.364 26.3742 26.4453C25.6195 25.7289 25.1602 25.0015 24.9031 24.1101C24.7937 23.7383 24.7773 23.5633 24.7828 22.7265C24.7828 21.8406 24.7937 21.7312 24.9359 21.2773C25.3078 20.0687 26.1664 19.0023 27.3203 18.3187C27.7469 18.0672 28.1625 17.9086 28.7477 17.7773C29.2781 17.657 30.6672 17.7008 31.1922 17.8539Z" fill="white"/>
<path d="M23.7109 29.5406C22.4477 29.7265 21.4906 30.1969 20.6867 31.0226C19.1555 32.5976 18.2969 35.3922 18.2969 38.8101C18.2969 40.2539 18.4008 40.768 18.8602 41.6758C19.0297 42.0094 19.2047 42.2336 19.582 42.6109C20.118 43.1523 20.5828 43.4586 21.2336 43.6883C22.1359 44.0164 21.8352 44.0055 30.1969 43.989L37.8477 43.9726L38.3125 43.8305C38.9031 43.6445 39.2148 43.5078 39.6086 43.2562C40.5219 42.6765 41.1945 41.7578 41.4844 40.7187C41.6594 40.068 41.7086 39.2914 41.6484 38.0937C41.375 32.7344 39.3406 29.7156 35.8789 29.5242C35.1352 29.4859 35.1242 29.4859 33.85 30.3062C32.8656 30.9351 32.182 31.2469 31.2742 31.482C30.5906 31.6625 29.3656 31.6625 28.6875 31.4875C27.7195 31.2359 27.0688 30.9351 26.0844 30.2953C25.7234 30.0601 25.2805 29.7867 25.0891 29.6883C24.7719 29.5242 24.7008 29.5078 24.2961 29.5133C24.05 29.5187 23.7875 29.5297 23.7109 29.5406ZM25.1602 31.7336C26.1391 32.3625 26.8664 32.718 27.7141 32.975C29.3656 33.4726 30.9297 33.4398 32.5758 32.8656C33.325 32.6086 33.8609 32.3297 34.8289 31.7062L35.6383 31.1922L35.9719 31.225C37.9898 31.4547 39.2148 33.1062 39.7617 36.3164C39.9258 37.268 40.0242 39.0453 39.9531 39.6851C39.8055 41.0086 38.9797 41.9273 37.6672 42.2336C37.2734 42.3265 36.7977 42.332 29.9453 42.332C21.8297 42.332 22.3438 42.3539 21.5289 41.9656C21.0805 41.7523 20.5172 41.2 20.3094 40.7734C20.0469 40.2265 19.9922 39.8875 19.9922 38.8265C19.9977 35.9445 20.6703 33.5711 21.8625 32.2695C22.3219 31.7664 22.8961 31.4437 23.6289 31.2851C24.2469 31.1484 24.2633 31.1539 25.1602 31.7336Z" fill="white"/>
<defs>
<linearGradient id="paint0_linear_21_1344" x1="0" y1="0" x2="34.0072" y2="73.4907" gradientUnits="userSpaceOnUse">
<stop stop-color="white" stop-opacity="0.5"/>
<stop offset="1" stop-color="white" stop-opacity="0"/>
</linearGradient>
</defs>
</svg>
