<svg width="26" height="26" viewBox="0 0 26 26" fill="none" xmlns="http://www.w3.org/2000/svg">
<path fill-rule="evenodd" clip-rule="evenodd" d="M20.3145 15.8641C20.3145 21.3509 15.8666 25.7989 10.3798 25.7989C8.84548 25.7989 7.39242 25.4511 6.09513 24.83C5.64925 24.6165 5.1441 24.5416 4.66656 24.6693L3.14402 25.0767C1.94399 25.3978 0.846126 24.2999 1.16721 23.0999L1.57459 21.5774C1.70236 21.0998 1.62742 20.5947 1.41395 20.1488C0.792877 18.8515 0.445068 17.3984 0.445068 15.8641C0.445068 10.3774 4.89299 5.92944 10.3798 5.92944C15.8666 5.92944 20.3145 10.3774 20.3145 15.8641ZM6.03334 17.106C6.71919 17.106 7.27518 16.55 7.27518 15.8641C7.27518 15.1783 6.71919 14.6223 6.03334 14.6223C5.3475 14.6223 4.7915 15.1783 4.7915 15.8641C4.7915 16.55 5.3475 17.106 6.03334 17.106ZM10.3798 17.106C11.0656 17.106 11.6216 16.55 11.6216 15.8641C11.6216 15.1783 11.0656 14.6223 10.3798 14.6223C9.69393 14.6223 9.13794 15.1783 9.13794 15.8641C9.13794 16.55 9.69393 17.106 10.3798 17.106ZM14.7262 17.106C15.4121 17.106 15.9681 16.55 15.9681 15.8641C15.9681 15.1783 15.4121 14.6223 14.7262 14.6223C14.0404 14.6223 13.4844 15.1783 13.4844 15.8641C13.4844 16.55 14.0404 17.106 14.7262 17.106Z" fill="#333333"/>
<path opacity="0.6" d="M20.2948 16.4956C20.4288 16.4401 20.561 16.3811 20.6912 16.3188C21.0535 16.1453 21.4639 16.0844 21.8519 16.1883L23.089 16.5192C24.064 16.7801 24.956 15.8881 24.6951 14.9131L24.3642 13.676C24.2603 13.288 24.3212 12.8776 24.4947 12.5153C24.9993 11.4613 25.2819 10.2807 25.2819 9.03403C25.2819 4.57602 21.6679 0.962078 17.2099 0.962078C13.8445 0.962078 10.9601 3.02167 9.74841 5.94918C9.9572 5.93608 10.1677 5.92943 10.3798 5.92943C15.8666 5.92943 20.3145 10.3774 20.3145 15.8641C20.3145 16.0762 20.3079 16.2868 20.2948 16.4956Z" fill="#333333"/>
</svg>
