<svg width="24" height="25" viewBox="0 0 24 25" fill="none" xmlns="http://www.w3.org/2000/svg">
<path opacity="0.5" d="M2.02967 22.4458C3.72706 24.1432 6.45897 24.1432 11.9228 24.1432C17.3866 24.1432 20.1185 24.1432 21.8159 22.4458C23.5133 20.7484 23.5133 18.0164 23.5133 12.5526C23.5133 7.08877 23.5133 4.35686 21.8159 2.65947C20.1185 0.962078 17.3866 0.962078 11.9228 0.962078C6.45897 0.962078 3.72706 0.962078 2.02967 2.65947C0.332275 4.35686 0.332275 7.08885 0.332275 12.5527C0.332275 18.0165 0.332275 20.7484 2.02967 22.4458Z" fill="#333333"/>
<path d="M7.0141 10.1158C6.99717 9.82214 6.99683 9.42817 6.99683 8.85243V1.04175C8.33646 0.962078 9.95189 0.962078 11.9228 0.962078C13.8937 0.962078 15.5091 0.962078 16.8488 1.04175V8.85243C16.8488 9.42817 16.8484 9.82214 16.8315 10.1158C16.814 10.42 16.7819 10.5136 16.7739 10.5315C16.6034 10.9155 16.1826 11.1226 15.7744 11.0234C15.7553 11.0188 15.6616 10.9871 15.4098 10.8154C15.1668 10.6496 14.8545 10.4096 14.3983 10.0583L14.3206 9.99846C13.8916 9.66764 13.5572 9.40983 13.1929 9.25157C12.3827 8.89959 11.4628 8.89959 10.6527 9.25157C10.2884 9.40983 9.95403 9.66764 9.52494 9.99846L9.44729 10.0583C8.99111 10.4096 8.67875 10.6496 8.43576 10.8154C8.18402 10.9871 8.0903 11.0188 8.07121 11.0234C7.66295 11.1226 7.24221 10.9155 7.07167 10.5315C7.0637 10.5136 7.03163 10.42 7.0141 10.1158Z" fill="#333333"/>
</svg>
